<svg xmlns="http://www.w3.org/2000/svg" class="icon" viewBox="0 0 1024 1024" width="64" height="64" t="1572835129774" p-id="5201" version="1.1"><path d="M 512.106 80.8381 c -237.365 0 -429.779 192.569 -429.779 430.134 c 0 237.565 192.414 430.132 429.779 430.132 c 237.388 0 429.802 -192.568 429.802 -430.132 C 941.908 273.407 749.495 80.8381 512.106 80.8381 Z M 605.571 696.711 c 10.2126 10.1665 11.2277 25.5919 2.32188 34.4772 c -8.92937 8.88537 -24.4652 7.84467 -34.6758 -2.29732 l -199.885 -197.652 c -5.79089 -5.7694 -8.53028 -13.1945 -8.26627 -20.1806 c -0.309038 -7.04853 2.4324 -14.5412 8.2458 -20.3536 l 199.906 -197.652 c 10.2105 -10.1665 25.7249 -11.1837 34.6758 -2.29835 c 8.90583 8.88434 7.89174 24.3117 -2.32188 34.4772 L 417.646 510.973 L 605.571 696.711 Z" p-id="5202" /></svg>