<svg xmlns="http://www.w3.org/2000/svg" class="icon" viewBox="0 0 1024 1024" width="64" height="64" t="1572500250222" p-id="8187" version="1.1"><path fill="#d81e06" d="M 487 347.43 C 487 424.512 424.512 487 347.43 487 H 237.57 C 160.488 487 98 424.512 98 347.43 V 237.57 C 98 160.488 160.488 98 237.57 98 h 109.86 C 424.512 98 487 160.488 487 237.57 v 109.86 Z M 487 786.43 C 487 863.512 424.512 926 347.43 926 H 237.57 C 160.488 926 98 863.512 98 786.43 V 676.57 C 98 599.488 160.488 537 237.57 537 h 109.86 C 424.512 537 487 599.488 487 676.57 v 109.86 Z M 926 347.43 C 926 424.512 863.512 487 786.43 487 H 676.57 C 599.488 487 537 424.512 537 347.43 V 237.57 C 537 160.488 599.488 98 676.57 98 h 109.86 C 863.512 98 926 160.488 926 237.57 v 109.86 Z M 730.7 533.6 c -107.861 0 -195.3 87.439 -195.3 195.3 s 87.439 195.3 195.3 195.3 S 926 836.761 926 728.9 s -87.439 -195.3 -195.3 -195.3 Z m 0 309.734 c -63.2 0 -114.435 -51.234 -114.435 -114.434 S 667.5 614.465 730.7 614.465 S 845.134 665.7 845.134 728.9 S 793.9 843.334 730.7 843.334 Z" p-id="8188" /></svg>