<svg class="icon" width="64px" height="64.00px" viewBox="0 0 1024 1024" version="1.1" xmlns="http://www.w3.org/2000/svg"><path fill="#d81e06" d="M548.43392 910.20288v-361.856c0-33.01376-51.2-33.01376-51.2 0v361.856c0 33.01888 51.2 33.01888 51.2 0zM352.09216 822.67136l151.6032 151.58272c9.86624 9.86624 26.3424 9.86624 36.20352 0l153.92768-153.92768c23.36768-23.36256-12.83584-59.5712-36.1984-36.1984a4363237.90848 4363237.90848 0 0 1-153.9328 153.92768h36.20352L388.3008 786.47296c-23.3728-23.36768-59.57632 12.83072-36.20864 36.1984zM355.84 672.20992c-76.36992 0-153.92256 9.32352-213.78048-48.50176-89.04704-86.016-46.81216-237.27616 67.17952-275.01568 11.83232-3.9168 17.47456-12.70272 18.79552-24.68352 0.24064-2.2016 0.81408-5.9648-0.53248 3.84 0.31744-2.29888 0.6912-4.59264 1.0752-6.8864a347.43296 347.43296 0 0 1 5.62688-26.33216 359.86432 359.86432 0 0 1 28.672-76.73856c38.17472-74.74688 103.35232-124.75392 185.84064-141.06624 92.81536-18.36032 204.49792 2.20672 275.13856 67.7632 42.29632 39.24992 67.4816 93.15328 78.53056 149.15584 2.8672 14.52544 2.96448 11.70944 3.51744 27.0848 0.40448 11.32032 7.5008 21.7344 18.79552 24.68352 110.91968 28.96896 160.8192 155.13088 100.03456 252.27776-28.02688 44.78976-79.1808 71.3984-131.10272 74.27072-28.02176 1.54624-56.43776 0.128-84.50048 0.128-33.01376 0-33.01376 51.2 0 51.2 36.99712 0 75.75552 3.1232 112.38912-2.98496 65.4592-10.92608 121.25696-51.01568 154.3424-108.26752 71.29088-123.36128-3.49184-280.98048-137.5488-315.99104l18.79552 24.68352c-3.90656-109.24032-72.576-214.65088-169.8304-262.84544C595.54304 12.544 474.09664 6.32832 378.81344 43.80672c-75.52 29.70624-132.93568 89.74336-167.13728 162.49344-17.3568 36.92032-30.35648 77.01504-34.84672 117.7088l18.79552-24.68352C56.63744 345.344-3.24608 514.23232 84.33664 634.60352c39.46496 54.2464 101.25312 85.01248 167.63392 88.6784 34.44224 1.89952 69.376 0.128 103.86944 0.128 33.01888 0 33.01888-51.2 0-51.2z" /></svg>