<svg xmlns="http://www.w3.org/2000/svg" class="icon" viewBox="0 0 1024 1024" width="64" height="64" t="1572406986353" p-id="4603" version="1.1"><path fill="#d81e06" d="M 354.472 837.981 L 124.189 915.718 l 113.874 -132.353 c -106.369 -69.092 -175.106 -177.471 -175.106 -298.953 c 0 -207.883 201.216 -377.407 447.924 -377.407 c 246.706 0 447.92 169.524 447.92 377.407 c 0 207.869 -201.214 377.38 -447.92 377.38 C 455.91 861.793 403.215 853.359 354.472 837.981 L 354.472 837.981 L 354.472 837.981 Z M 309.359 421.193 c -30.3738 0 -54.9941 24.6323 -54.9941 54.9985 c 0 30.3748 24.6203 55.0301 54.9941 55.0301 c 30.3574 0 54.9951 -24.6553 54.9951 -55.0301 C 364.354 445.825 339.716 421.193 309.359 421.193 L 309.359 421.193 L 309.359 421.193 Z M 712.404 421.193 c -30.3524 0 -54.9975 24.6323 -54.9975 54.9985 c 0 30.3748 24.6453 55.0301 54.9975 55.0301 c 30.3972 0 54.9895 -24.6553 54.9895 -55.0301 C 767.393 445.825 742.801 421.193 712.404 421.193 L 712.404 421.193 L 712.404 421.193 Z M 510.881 421.193 c -30.4014 0 -54.9935 24.6323 -54.9935 54.9985 c 0 30.3748 24.5923 55.0301 54.9935 55.0301 c 30.3982 0 54.9945 -24.6553 54.9945 -55.0301 C 565.875 445.825 541.279 421.193 510.881 421.193 L 510.881 421.193 Z" p-id="4604" /></svg>