<svg xmlns="http://www.w3.org/2000/svg" class="icon" viewBox="0 0 1024 1024" width="64" height="64" t="1572854357704" p-id="11925" version="1.1"><path d="M 510.4 243.2 c 8 27.2 33.6 44.8 60.8 44.8 h 259.2 c 0 -35.2 -28.8 -64 -64 -64 H 504 l 6.4 19.2 Z M 484.8 160 h 281.6 c 70.4 0 128 57.6 128 128 v 25.6 c 30.4 24 51.2 60.8 51.2 102.4 v 384 c 0 70.4 -57.6 128 -128 128 H 208 c -70.4 0 -128 -57.6 -128 -128 V 224 c 0 -70.4 57.6 -128 128 -128 h 164.8 c 46.4 0 89.6 25.6 112 64 Z m -112 0 H 208 c -35.2 0 -64 28.8 -64 64 v 576 c 0 35.2 28.8 64 64 64 h 608 c 35.2 0 64 -28.8 64 -64 V 416 c 0 -35.2 -28.8 -64 -64 -64 H 574.4 c -56 0 -105.6 -36.8 -121.6 -89.6 l -19.2 -57.6 c -8 -27.2 -32 -44.8 -60.8 -44.8 Z M 272 704 h 256 c 17.6 0 32 14.4 32 32 s -14.4 32 -32 32 H 272 c -17.6 0 -32 -14.4 -32 -32 s 14.4 -32 32 -32 Z" p-id="11926" /></svg>