<svg xmlns="http://www.w3.org/2000/svg" class="icon" viewBox="0 0 1024 1024" width="64" height="64" t="1572404663834" p-id="4362" version="1.1"><path fill="#d81e06" d="M 844.744 64.6412 l -483.775 80.8146 c -1.56771 0.25071 -3.03103 0.710175 -4.45343 1.25457 l -17.475 0 c -11.9154 0 -21.384 9.5321 -21.384 21.2807 l 0 553.029 c -18.8759 -10.9125 -40.8258 -17.1404 -64.2166 -17.1404 c -70.9274 0 -128.433 57.3594 -128.433 128.139 S 182.512 960.157 253.44 960.157 c 70.9264 0 128.433 -57.3594 128.433 -128.139 c 0 -5.18407 -0.314155 -10.2853 -0.899486 -15.2595 c 0.585331 -1.96475 0.899486 -4.01341 0.899486 -6.18793 l 0 -449.765 l 449.514 -79.2673 l 0 311.299 c -18.8759 -10.8706 -40.8258 -17.1424 -64.2166 -17.1424 c -70.9274 0 -128.433 57.4013 -128.433 128.183 c 0 70.7381 57.5057 128.139 128.433 128.139 c 70.9264 0 128.432 -57.4013 128.432 -128.139 c 0 -5.18407 -0.313132 -10.2853 -0.898463 -15.3015 c 0.585331 -1.96679 0.898463 -4.01545 0.898463 -6.18793 l 0 -597.973 c 0 -10.4521 -7.58781 -19.1901 -17.5794 -20.9461 c -3.49152 -2.1735 -7.8815 -3.0515 -12.7105 -2.25741 l -11.371 1.92279 l -1.17066 0 C 849.928 63.1359 847.21 63.6793 844.744 64.6412 Z" p-id="4363" /></svg>