<svg xmlns="http://www.w3.org/2000/svg" class="icon" viewBox="0 0 1025 1024" width="64" height="64" t="1572500459514" p-id="13663" version="1.1"><path fill="#d81e06" d="M 510.258 178.266 c -139.235 0 -252.1 110.566 -252.1 246.949 c 0 136.378 112.864 246.945 252.1 246.945 c 139.231 0 252.096 -110.566 252.096 -246.945 C 762.298 288.832 649.489 178.266 510.258 178.266 L 510.258 178.266 L 510.258 178.266 Z M 219.136 520.049 L 219.136 292.027 c -3.19101 0 -6.38102 0.111 -9.46203 0.389001 C 261.348 180.222 376.395 102.07 510.258 102.07 c 133.858 0 248.96 78.1512 300.578 190.346 c -3.13501 -0.222001 -6.27002 -0.389001 -9.46103 -0.389001 l 0 228.023 c 64.2702 0 116.448 -51.0582 116.448 -113.983 c 0 -42.7721 -24.0721 -80.0012 -59.6222 -99.5423 C 808.149 165.387 671.49 64.0552 510.258 64.0552 c -161.236 0 -297.841 101.332 -347.948 242.468 c -35.5501 19.4851 -59.6232 56.7702 -59.6232 99.4863 C 102.686 468.99 154.809 520.049 219.136 520.049 L 219.136 520.049 L 219.136 520.049 Z M 761.794 650.772 c -65.8932 60.2422 -154.292 97.1333 -251.536 97.1333 c -97.0773 0 -185.366 -36.7241 -251.204 -96.7953 C 141.261 710.454 63.8912 816.207 63.8912 959.808 l 895.753 0 C 959.644 815.929 880.873 710.062 761.794 650.772 L 761.794 650.772 L 761.794 650.772 Z M 761.794 650.772" p-id="13664" /></svg>