<svg xmlns="http://www.w3.org/2000/svg" class="icon" viewBox="0 0 1024 1024" width="64" height="64" t="1573196311549" p-id="7127" version="1.1"><path fill="" d="M 921.699 549.049 l -566.083 0 c -20.7486 0 -37.54 -16.7904 -37.54 -37.54 c 0 -20.7332 16.7914 -37.542 37.54 -37.542 l 566.083 0 c 20.7567 0 37.5461 16.8078 37.5461 37.542 C 959.245 532.258 942.455 549.049 921.699 549.049 L 921.699 549.049 Z M 921.699 248.725 l -566.083 0 c -20.7486 0 -37.54 -16.8088 -37.54 -37.541 c 0 -20.7312 16.7914 -37.54 37.54 -37.54 l 566.083 0 c 20.7567 0 37.5461 16.8088 37.5461 37.54 C 959.245 231.916 942.455 248.725 921.699 248.725 L 921.699 248.725 Z M 136.51 886.908 c -41.4644 0 -75.0861 -33.6166 -75.0861 -75.0759 c 0 -41.4654 33.6217 -75.08 75.0861 -75.08 c 41.4603 0 75.081 33.6156 75.081 75.08 C 211.591 853.292 177.97 886.908 136.51 886.908 L 136.51 886.908 Z M 136.51 586.589 c -41.4644 0 -75.0861 -33.6217 -75.0861 -75.0789 c 0 -41.4674 33.6217 -75.083 75.0861 -75.083 c 41.4603 0 75.081 33.6156 75.081 75.083 C 211.591 552.966 177.97 586.589 136.51 586.589 L 136.51 586.589 Z M 136.51 286.264 c -41.4644 0 -75.0861 -33.6156 -75.0861 -75.08 c 0 -41.4654 33.6217 -75.082 75.0861 -75.082 c 41.4603 0 75.081 33.6156 75.081 75.082 C 211.591 252.649 177.97 286.264 136.51 286.264 L 136.51 286.264 Z M 355.616 774.287 l 566.083 0 c 20.7567 0 37.5461 16.7914 37.5461 37.541 s -16.7894 37.541 -37.5461 37.541 l -566.083 0 c -20.7486 0 -37.54 -16.7914 -37.54 -37.541 S 334.866 774.287 355.616 774.287 L 355.616 774.287 Z M 355.616 774.287" p-id="7128" /></svg>