<svg class="icon" width="64px" height="64.00px" viewBox="0 0 1024 1024" version="1.1" xmlns="http://www.w3.org/2000/svg"><path fill="#d81e06" d="M65.068 959.56L79.7 905.809c0.464-1.694 45.775-172.649-0.504-409.174l-0.561-5.718c0-235.336 197.231-426.794 439.661-426.794 242.426 0 439.661 191.459 439.661 426.794 0 235.364-197.234 426.841-439.661 426.841l-5.214-0.456c-44.615-7.945-91.67-11.967-139.83-11.967-144.363 0-254.288 36.202-255.394 36.57l-52.79 17.655z m73.121-471.452c33.801 174.974 20.679 313.98 9.109 384.041 48.451-11.532 129.479-26.349 225.955-26.349 50.7 0 100.351 4.177 147.601 12.412 208.414-1.338 377.568-165.594 377.568-367.294 0-202.505-170.528-367.257-380.127-367.257-208.627 0-378.536 163.23-380.106 364.447zM359.455 503.795c0 22.628-18.352 40.989-41.008 40.989-22.637 0-40.991-18.361-40.991-40.989 0-22.636 18.353-40.998 40.991-40.998 22.655 0 41.01 18.362 41.01 40.998h-0.002zM318.447 554.708c-28.083 0-50.914-22.839-50.914-50.913 0-28.082 22.83-50.92 50.914-50.92 28.082 0 50.93 22.839 50.93 50.92 0 28.074-22.849 50.911-50.93 50.911v0.002z m0-81.989c-17.133 0-31.067 13.943-31.067 31.076 0 17.133 13.934 31.067 31.067 31.067 17.13 0 31.086-13.934 31.086-31.067-0.001-17.133-13.957-31.076-31.086-31.076z m240.818 33.392c0 22.627-18.333 40.999-40.969 40.999-22.656 0-41.01-18.372-41.01-40.998 0-22.627 18.354-40.99 41.01-40.99 22.636 0 40.969 18.364 40.969 40.989zM518.297 557.033c-28.083 0-50.932-22.839-50.932-50.922 0-28.071 22.849-50.911 50.932-50.911 28.061 0 50.891 22.841 50.891 50.911 0 28.083-22.83 50.922-50.891 50.922z m0-81.987c-17.134 0-31.087 13.933-31.087 31.067 0 17.133 13.953 31.074 31.087 31.074 17.112 0 31.045-13.943 31.045-31.076s-13.933-31.067-31.045-31.067v0.002zM759.114 501.468c0 22.628-18.352 40.992-40.988 40.992-22.656 0-40.991-18.364-40.991-40.992 0-22.625 18.335-40.998 40.991-40.998 22.636 0 40.988 18.373 40.988 40.998zM718.125 552.383c-28.08 0-50.91-22.84-50.91-50.914 0-28.08 22.83-50.92 50.911-50.92 28.082 0 50.911 22.84 50.911 50.92 0 28.074-22.83 50.914-50.911 50.914h-0.001z m0-81.99c-17.131 0-31.065 13.944-31.065 31.076 0 17.134 13.934 31.068 31.067 31.068 17.133 0 31.065-13.934 31.065-31.067-0.001-17.133-13.935-31.077-31.067-31.077z" /></svg>