<svg xmlns="http://www.w3.org/2000/svg" class="icon" viewBox="0 0 1024 1024" width="64" height="64" t="1572407563966" p-id="15811" version="1.1"><path fill="#d81e06" d="M 512 69.8182 a 442.182 442.182 0 1 0 442.182 442.182 A 442.182 442.182 0 0 0 512 69.8182 Z m 0 60.2764 A 381.905 381.905 0 0 1 893.905 512 a 378.182 378.182 0 0 1 -59.3455 203.636 A 440.087 440.087 0 0 0 593.92 581.818 a 180.829 180.829 0 1 0 -162.909 0 a 442.182 442.182 0 0 0 -241.571 133.818 A 378.182 378.182 0 0 1 130.095 512 A 381.905 381.905 0 0 1 512 130.095 Z m 0 422.167 a 130.793 130.793 0 1 1 130.56 -130.793 A 130.793 130.793 0 0 1 512 552.262 Z m 0 341.644 a 381.44 381.44 0 0 1 -285.789 -129.164 a 380.276 380.276 0 0 1 571.578 0 A 380.742 380.742 0 0 1 512 893.905 Z" p-id="15812" /></svg>