<svg xmlns="http://www.w3.org/2000/svg" class="icon" viewBox="0 0 1024 1024" width="64" height="64" t="1573196552269" p-id="7356" version="1.1"><path d="M 64.2887 526.511 l 0 -28.0099 c 0.255827 -1.96168 0.521886 -3.92438 0.760317 -5.88606 c 2.85195 -23.621 4.16793 -47.55 8.83216 -70.8118 c 14.0838 -70.2878 43.9971 -133.498 88.957 -189.414 c 48.4986 -60.3229 108.581 -105.307 180.201 -134.7 c 42.8233 -17.5722 87.3637 -28.1819 133.58 -31.5465 c 7.62465 -0.554632 15.2421 -1.22183 22.8648 -1.83786 l 25.0086 0 c 2.30039 0.265036 4.59465 0.680499 6.90322 0.769526 c 40.8606 1.6291 80.7511 8.7462 119.567 21.5263 c 82.5225 27.1647 151.68 74.2491 206.786 141.312 c 58.5188 71.2139 91.9072 153.004 100.166 244.949 c 3.84149 42.7926 1.4971 85.2394 -6.86536 127.334 c -9.78895 49.2661 -27.4471 95.5788 -53.038 138.808 c -42.4375 71.6846 -100.252 127.659 -173.501 167.203 c -75.2652 40.6345 -155.897 57.8434 -241.327 52.555 c -43.0239 -2.66367 -84.961 -10.9003 -125.159 -26.301 c -124.023 -47.5285 -211.672 -132.775 -262.124 -255.746 c -16.7955 -40.9374 -26.3829 -83.7382 -29.725 -127.898 C 65.6139 541.375 64.9211 533.945 64.2887 526.511 L 64.2887 526.511 Z M 512.174 904.396 c 217.75 -0.727571 392.276 -176.014 392.002 -392.37 c -0.274246 -217.232 -175.273 -391.647 -391.826 -391.89 c -216.513 -0.242524 -392.082 175.197 -392.258 391.964 C 119.922 728.49 295.691 904.36 512.174 904.396 L 512.174 904.396 Z M 512.174 904.396 M 686.87 679.804 l -27.9792 0 c -7.72494 0 -13.9906 -6.26161 -13.9906 -13.9886 L 644.9 358.037 c 0 -7.72289 6.2657 -13.9906 13.9906 -13.9906 l 27.9792 0 c 7.72903 0 13.9906 6.26775 13.9906 13.9906 l 0 307.778 C 700.86 673.541 694.598 679.804 686.87 679.804 L 686.87 679.804 Z M 563.22 467.951 c -58.4901 -37.3057 -133.725 -81.0018 -191.855 -116.763 c -28.9422 -17.8014 -48.2264 -0.38988 -48.2264 29.4661 l 0 260.597 c 0 36.309 19.0499 48.2172 48.4024 30.9172 c 63.3079 -37.3005 146.037 -83.9326 200.253 -124.564 C 599.171 527.084 591.659 486.092 563.22 467.951 Z M 509.896 525.05 c -30.166 19.407 -85.5576 52.2203 -114.964 68.8828 c -9.68355 5.4839 -15.6904 0.352017 -15.6904 -13.0113 L 379.241 442.563 c 0 -12.9192 6.16747 -17.6264 16.0905 -12.0105 c 29.3791 16.6441 82.2053 49.0379 114.565 68.6536 C 522.693 506.958 521.426 517.635 509.896 525.05 Z" p-id="7357" /></svg>