<svg xmlns="http://www.w3.org/2000/svg" class="icon" viewBox="0 0 1024 1024" width="64" height="64" t="1573031710742" p-id="8696" version="1.1"><path fill="#231815" d="M 511.869 45.5805 a 464.964 464.964 0 1 1 -181.584 36.6476 a 463.675 463.675 0 0 1 181.584 -36.6476 m 0 -39.6141 C 232.334 5.96636 5.71621 232.584 5.71621 512.13 s 226.606 506.153 506.153 506.153 s 506.164 -226.606 506.164 -506.153 S 791.415 5.96636 511.869 5.96636 Z" p-id="8697" /><path d="M 511.869 1024 A 512.006 512.006 0 0 1 312.623 40.4918 A 511.998 511.998 0 0 1 711.115 983.769 a 508.743 508.743 0 0 1 -199.246 40.2302 Z m 0 -1012.33 C 235.916 11.6712 11.4096 236.178 11.4096 512.13 s 224.507 500.459 500.459 500.459 s 500.459 -224.507 500.459 -500.459 S 787.821 11.6712 511.869 11.6712 Z m 0 972.702 a 472.357 472.357 0 0 1 -183.809 -907.394 a 472.379 472.379 0 0 1 367.617 870.301 a 469.311 469.311 0 0 1 -183.809 37.0926 Z m 0 -933.088 a 460.948 460.948 0 0 0 -179.359 885.476 A 460.964 460.964 0 0 0 691.239 87.4879 a 457.936 457.936 0 0 0 -179.37 -36.2027 Z" p-id="8698" /><path fill="#231815" d="M 420.318 727.829 a 19.8071 19.8071 0 0 1 -19.8071 -19.7842 V 314.961 a 19.8071 19.8071 0 1 1 39.6141 0 v 393.083 a 19.8071 19.8071 0 0 1 -19.8071 19.7842 Z" p-id="8699" /><path d="M 420.318 733.534 a 25.5347 25.5347 0 0 1 -25.5119 -25.489 V 314.961 a 25.5119 25.5119 0 1 1 51.0237 0 v 393.083 a 25.5347 25.5347 0 0 1 -25.5119 25.489 Z m 0 -432.686 a 14.1251 14.1251 0 0 0 -14.1023 14.1137 v 393.083 a 14.1023 14.1023 0 1 0 28.2045 0 V 314.961 a 14.1251 14.1251 0 0 0 -14.1023 -14.1137 Z" p-id="8700" /><path fill="#231815" d="M 606.511 727.829 a 19.8185 19.8185 0 0 1 -19.8185 -19.7842 V 314.961 a 19.8185 19.8185 0 1 1 39.6255 0 v 393.083 a 19.8071 19.8071 0 0 1 -19.8071 19.7842 Z" p-id="8701" /><path d="M 606.511 733.534 a 25.5461 25.5461 0 0 1 -25.5233 -25.489 V 314.961 a 25.5233 25.5233 0 1 1 51.0351 0 v 393.083 a 25.5347 25.5347 0 0 1 -25.5119 25.489 Z m 0 -432.686 a 14.1365 14.1365 0 0 0 -14.1137 14.1137 v 393.083 a 14.1137 14.1137 0 0 0 28.1931 0 V 314.961 a 14.1251 14.1251 0 0 0 -14.0794 -14.1137 Z" p-id="8702" /></svg>