<svg xmlns="http://www.w3.org/2000/svg" class="icon" viewBox="0 0 1024 1024" width="64" height="64" t="1573031498233" p-id="7527" version="1.1"><path d="M 516.655 9.31 C 237.382 9.31 10.86 235.83 10.86 515.102 s 226.52 505.794 505.794 505.794 s 505.793 -226.521 505.793 -505.794 c 0 -277.721 -226.52 -505.794 -505.793 -505.794 Z m 0 982.108 c -262.207 0 -474.764 -212.557 -474.764 -474.763 c 0 -262.207 212.557 -474.764 474.764 -474.764 c 262.206 0 474.763 212.557 474.763 474.764 c 0 262.206 -212.557 474.763 -474.763 474.763 Z" p-id="7528" /><path d="M 705.94 474.764 L 470.11 325.818 c -21.722 -13.963 -51.2 -7.757 -63.613 13.964 c -4.655 7.757 -7.758 15.515 -7.758 24.824 v 297.891 c 0 26.376 20.17 46.545 46.546 46.545 c 9.309 0 17.067 -3.103 24.824 -7.757 l 237.382 -148.946 c 21.721 -13.963 27.927 -41.89 13.964 -63.612 c -4.655 -4.654 -9.31 -9.309 -15.516 -13.963 Z" p-id="7529" /></svg>