<svg xmlns="http://www.w3.org/2000/svg" class="icon" viewBox="0 0 1024 1024" width="64" height="64" t="1573195994967" p-id="1831" version="1.1"><path d="M 64.2887 526.511 l 0 -28.0099 c 0.255827 -1.96168 0.521886 -3.92438 0.760317 -5.88606 c 2.85195 -23.621 4.16793 -47.55 8.83216 -70.8118 c 14.0838 -70.2878 43.9971 -133.498 88.957 -189.414 c 48.4986 -60.3229 108.581 -105.307 180.201 -134.7 c 42.8233 -17.5722 87.3637 -28.1819 133.58 -31.5465 c 7.62465 -0.554632 15.2421 -1.22183 22.8648 -1.83786 l 25.0086 0 c 2.30039 0.265036 4.59465 0.680499 6.90322 0.769526 c 40.8606 1.6291 80.7511 8.7462 119.567 21.5263 c 82.5225 27.1647 151.68 74.2491 206.786 141.312 c 58.5188 71.2139 91.9072 153.004 100.166 244.949 c 3.84149 42.7926 1.4971 85.2394 -6.86536 127.334 c -9.78895 49.2661 -27.4471 95.5788 -53.038 138.808 c -42.4375 71.6846 -100.252 127.659 -173.501 167.203 c -75.2652 40.6345 -155.897 57.8434 -241.327 52.555 c -43.0239 -2.66367 -84.961 -10.9003 -125.159 -26.301 c -124.023 -47.5285 -211.672 -132.775 -262.124 -255.746 c -16.7955 -40.9374 -26.3829 -83.7382 -29.725 -127.898 C 65.6139 541.375 64.9211 533.945 64.2887 526.511 L 64.2887 526.511 Z M 512.174 904.396 c 217.75 -0.727571 392.276 -176.014 392.002 -392.37 c -0.274246 -217.232 -175.273 -391.647 -391.826 -391.89 c -216.513 -0.242524 -392.082 175.197 -392.258 391.964 C 119.922 728.49 295.691 904.36 512.174 904.396 L 512.174 904.396 Z M 512.174 904.396" p-id="1832" /><path d="M 652.652 351.169 c -58.1371 35.7625 -133.384 79.4659 -191.88 116.779 c -28.4428 18.1432 -35.9539 59.142 -8.57735 79.6623 c 54.224 40.6386 136.971 87.2706 200.281 124.577 c 29.3597 17.3062 48.4136 5.39794 48.4136 -30.9172 L 700.89 380.636 C 700.89 350.777 681.598 333.36 652.652 351.169 Z M 644.78 580.932 c 0 13.3634 -6.00578 18.4993 -15.6914 13.0072 c -29.4139 -16.6604 -84.8106 -49.4809 -114.986 -68.8869 c -11.5316 -7.41897 -12.7934 -18.09 0 -25.8508 c 32.3682 -19.6147 85.2005 -52.0177 114.581 -68.6587 c 9.923 -5.62102 16.0966 -0.914836 16.0966 12.0136 C 644.78 477.211 644.78 545.778 644.78 580.932 Z" p-id="1833" /><path d="M 365.086 679.827 l -27.9844 0 c -7.72698 0 -13.9937 -6.2657 -13.9937 -13.9927 L 323.108 358.015 c 0 -7.72596 6.26673 -13.9917 13.9937 -13.9917 l 27.9844 0 c 7.73005 0 13.9958 6.2657 13.9958 13.9917 l 0 307.82 C 379.082 673.562 372.817 679.827 365.086 679.827 L 365.086 679.827 Z" p-id="1834" /><path d="M 365.086 679.827" p-id="1835" /></svg>