<svg xmlns="http://www.w3.org/2000/svg" class="icon" viewBox="0 0 1024 1024" width="64" height="64" t="1572500346281" p-id="10204" version="1.1"><path d="M 927.5 931.4 h -831 c -2.5 0 -4.5 -2 -4.5 -4.5 V 226.5 c 0 -2.5 2 -4.5 4.5 -4.5 h 106.6 c 1.7 0 3.2 -0.9 4 -2.4 L 272.4 96 c 3.4 -6.5 15.2 -6.2 27.5 0.2 c 0.6 0.3 1.4 0.5 2.1 0.5 h 530.1 c 2.5 0 4.5 2 4.5 4.5 v 53.7 c 0 2.5 -2 4.5 -4.5 4.5 H 307.7 c -1.7 0 -3.2 0.9 -4 2.4 l -28.3 53.7 c -1.6 3 0.6 6.6 4 6.6 h 648.1 c 2.5 0 4.5 2 4.5 4.5 V 927 c 0 2.4 -2 4.4 -4.5 4.4 Z m -511 -495.2 c 0 -0.6 -0.5 -1.1 -1.1 -1.1 H 211 c -2.5 0 -4.5 2 -4.5 4.5 v 48.3 c 0 2.5 2 4.5 4.5 4.5 h 201 c 2.5 0 4.5 -2 4.5 -4.5 v -51.7 Z m 0 114.5 c 0 -0.6 -0.5 -1.1 -1.1 -1.1 H 211 c -2.5 0 -4.5 2 -4.5 4.5 v 48.3 c 0 2.5 2 4.5 4.5 4.5 h 201 c 2.5 0 4.5 -2 4.5 -4.5 v -51.7 Z m 0 114.5 c 0 -0.6 -0.5 -1.1 -1.1 -1.1 H 211 c -2.5 0 -4.5 2 -4.5 4.5 v 48.3 c 0 2.5 2 4.5 4.5 4.5 h 201 c 2.5 0 4.5 -2 4.5 -4.5 v -51.7 Z m 248.2 -249.3 c -107.8 0 -192.3 99.2 -167.4 211.2 c 14.2 63.8 64.2 113.8 128 128 c 112.1 24.9 211.2 -59.7 211.2 -167.4 c 0 -94.8 -76.9 -171.8 -171.8 -171.8 Z m 0 286.4 c -63.8 0 -115.4 -52.2 -114.5 -116.2 c 0.9 -61.7 51.2 -112 112.9 -112.9 c 64 -0.9 116.2 50.7 116.2 114.5 c 0 63.3 -51.3 114.6 -114.6 114.6 Z" p-id="10205" /></svg>