<svg xmlns="http://www.w3.org/2000/svg" class="icon" viewBox="0 0 1024 1024" width="64" height="64" t="1573196136437" p-id="2422" version="1.1"><path d="M 753.565 337.471 c -45.8697 0 -160.26 113.85 -243.789 194.549 C 383.134 654.384 263.509 773.285 167.765 773.285 l -58.8923 0 c -24.0682 0 -43.5816 -19.5267 -43.5816 -43.5816 s 19.5134 -43.5816 43.5816 -43.5816 l 58.8923 0 c 60.504 0 183.003 -121.681 281.433 -216.784 c 119.796 -115.744 223.255 -219.029 304.368 -219.029 l 56.2092 0 l -59.6414 -57.8281 c -17.034 -16.993 -17.0606 -42.9021 -0.057305 -59.9279 c 17.0022 -17.0309 44.5967 -17.0647 61.6317 -0.065492 l 134.208 133.874 c 8.19259 8.17212 12.7944 19.2382 12.7944 30.8036 c 0 11.5644 -4.60181 22.6048 -12.7944 30.777 L 811.707 461.726 c -8.50572 8.48628 -19.6465 12.5222 -30.7872 12.5222 c -11.1663 0 -22.3337 -4.67651 -30.8445 -13.1996 c -17.0033 -17.0258 -16.9756 -45.4328 0.057305 -62.4258 l 59.6414 -61.1518 L 753.565 337.471 Z M 811.707 561.661 c -17.035 -16.9992 -44.6295 -16.9726 -61.6317 0.058328 c -17.0033 17.0247 -16.9756 46.2575 0.057305 63.2506 l 59.6414 61.1507 l -56.2092 0 c -35.7932 0 -95.5901 -52.9469 -154.876 -108.373 c -17.5763 -16.4353 -45.1616 -16.3422 -61.5948 1.22694 c -16.4445 17.5681 -15.5236 46.3936 2.05378 62.8238 c 90.3221 84.4586 151.247 131.485 214.417 131.485 l 56.2092 0 l -59.6414 57.825 c -17.034 16.993 -17.0606 43.7361 -0.057305 60.7619 c 8.51186 8.52312 19.6782 12.3697 30.8445 12.3697 c 11.1407 0 22.2815 -4.45343 30.7872 -12.9397 L 945.915 757.311 c 8.19259 -8.17315 12.7944 -19.3159 12.7944 -30.8813 c 0 -11.5644 -4.60181 -22.6826 -12.7944 -30.8558 L 811.707 561.661 Z M 108.872 337.471 l 58.8923 0 c 45.9321 0 114.402 58.4553 168.915 107.942 c 8.35223 7.57656 18.8329 12.1405 29.2921 12.1405 c 11.853 0 23.6732 -4.39408 32.271 -13.8576 c 16.1826 -17.8076 14.8594 -46.8234 -2.95838 -62.9988 c -85.2475 -77.3814 -156.562 -130.389 -227.52 -130.389 l -58.8923 0 c -24.0682 0 -43.5816 19.5267 -43.5816 43.5816 S 84.8045 337.471 108.872 337.471 Z" p-id="2423" /></svg>