<svg xmlns="http://www.w3.org/2000/svg" class="icon" viewBox="0 0 1024 1024" width="64" height="64" t="1572500023914" p-id="6400" version="1.1"><path fill="#d81e06" d="M 315.598 894.22 c -62.1387 0 -124.393 0 -188.573 0 c 0 -126.355 0 -252.969 0 -382.249 c 63.4904 0 125.047 0 188.573 0 C 315.598 639.418 315.598 765.974 315.598 894.22 Z M 603.686 893.767 c -60.9015 0 -122.854 0 -186.301 0 c 0 -254.76 0 -508.684 0 -766.052 c 62.7998 0 123.423 0 186.301 0 C 603.686 382.423 603.686 637.025 603.686 893.767 Z M 895.189 894.493 c -62.4624 0 -124.033 0 -187.933 0 c 0 -174.162 0 -348.697 0 -525.524 c 61.722 0 123.861 0 187.933 0 C 895.189 543.87 895.189 718.462 895.189 894.493 Z" p-id="6401" /></svg>