<svg xmlns="http://www.w3.org/2000/svg" class="icon" viewBox="0 0 1024 1024" width="64" height="64" t="1572405348051" p-id="8189" version="1.1"><path fill="#d81e06" d="M 512 51.2 C 257.5 51.2 51.2 257.5 51.2 512 S 257.5 972.8 512 972.8 S 972.8 766.5 972.8 512 S 766.5 51.2 512 51.2 Z M 512 921.6 c -226.3 0 -409.6 -183.3 -409.6 -409.6 S 285.7 102.4 512 102.4 S 921.6 285.7 921.6 512 S 738.3 921.6 512 921.6 Z M 734 358.1 c -28.2 -27.9 -65.6 -43.2 -105.4 -43.2 c -37.4 0 -73.3 13.8 -101 38.8 L 510.5 369 l -17 -15.3 c -27.8 -25 -63.7 -38.8 -101.1 -38.8 c -39.8 0 -77.2 15.4 -105.4 43.2 c -28.3 28.1 -43.9 65.4 -43.9 105.2 c 0 39.8 15.6 77.1 44 105.2 l 202.2 195.7 c 5.7 5.6 13.2 8.7 21.2 8.7 c 8 0 15.6 -3.1 21.1 -8.6 L 734 568.5 c 28.3 -28 43.9 -65.4 43.9 -105.2 C 778 423.6 762.4 386.2 734 358.1 Z M 317.7 474.2 c -0.1 0 -0.1 0 -0.2 0 c -6.4 -0.1 -11.6 -5.4 -11.4 -11.8 c 0.3 -22.4 9.9 -45.1 25.6 -60.8 c 19.5 -19.5 45.9 -24.3 59 -22.8 c 6.4 0.7 10.9 6.5 10.2 12.9 c -0.7 6.4 -6.6 10.9 -12.9 10.2 c -6.7 -0.8 -25.9 2.2 -39.8 16.1 c -11.5 11.5 -18.6 28.2 -18.8 44.7 C 329.2 469.1 324 474.2 317.7 474.2 Z" p-id="8190" /></svg>