<svg class="icon" width="64px" height="64.00px" viewBox="0 0 1024 1024" version="1.1" xmlns="http://www.w3.org/2000/svg"><path fill="#d81e06" d="M793.871059 81.889882a130.650353 130.650353 0 0 1 130.499765 130.499765 130.650353 130.650353 0 0 1-130.499765 130.529882 130.650353 130.650353 0 0 1-130.499765-130.529882 130.650353 130.650353 0 0 1 130.499765-130.499765M215.100235 664.154353a130.650353 130.650353 0 0 1-130.529882-130.499765 130.650353 130.650353 0 0 1 130.529882-130.499764 130.650353 130.650353 0 0 1 130.499765 130.499764 130.650353 130.650353 0 0 1-130.499765 130.499765m578.770824 15.058823a130.650353 130.650353 0 0 1 130.499765 130.529883 130.650353 130.650353 0 0 1-130.499765 130.499765 130.650353 130.650353 0 0 1-130.499765-130.499765 130.650353 130.650353 0 0 1 130.499765-130.529883m0-276.058352a190.976 190.976 0 0 0 190.735059-190.765177A190.945882 190.945882 0 0 0 793.871059 21.654588a190.945882 190.945882 0 0 0-190.735059 190.735059c0 19.094588 2.891294 37.496471 8.131765 54.904471l-267.836236 125.680941a189.650824 189.650824 0 0 0-128.331294-50.05553 190.976 190.976 0 0 0-190.765176 190.735059 190.976 190.976 0 0 0 190.765176 190.735059 190.373647 190.373647 0 0 0 150.979765-74.631529l240.941176 121.494588a190.945882 190.945882 0 0 0 186.819765 229.225412 190.945882 190.945882 0 0 0 190.765177-190.735059 190.945882 190.945882 0 0 0-190.735059-190.765177 190.735059 190.735059 0 0 0-165.165177 95.744l-233.833411-117.910588a189.319529 189.319529 0 0 0 10.962823-63.156706c0-33.430588-8.734118-64.873412-23.883294-92.220235l255.668706-119.958588a190.524235 190.524235 0 0 0 156.250353 81.679059" /></svg>