<svg xmlns="http://www.w3.org/2000/svg" class="icon" viewBox="0 0 1024 1024" width="64" height="64" t="1572857724298" p-id="17068" version="1.1"><path fill="#888888" d="M 602.224 891 h -480.96 C 54.392 891 0 836.64 0 769.736 v -515.44 c 0 -66.872 54.392 -121.304 121.264 -121.304 h 480.96 c 66.864 0 121.296 54.424 121.296 121.304 v 88.312 l 253.032 -146.104 a 31.76 31.76 0 0 1 31.632 0 A 31.632 31.632 0 0 1 1024 223.904 v 576.232 a 31.704 31.704 0 0 1 -15.816 27.424 a 31.76 31.76 0 0 1 -31.632 0 L 723.52 681.464 v 88.272 c 0 66.904 -54.424 121.264 -121.296 121.264 Z m -480.96 -694.744 c -32 0 -58.008 26.04 -58.008 58.04 v 515.44 c 0 32 26.008 58.008 58.008 58.008 h 480.96 c 32 0 58.04 -26.008 58.04 -58.008 V 626.664 c 0 -11.304 6.024 -21.752 15.816 -27.432 a 31.744 31.744 0 0 1 31.624 0 l 253.04 146.104 V 278.688 l -253.04 146.104 a 31.744 31.744 0 0 1 -31.624 0 a 31.632 31.632 0 0 1 -15.816 -27.4 V 254.296 c 0 -32 -26.04 -58.04 -58.04 -58.04 h -480.96 Z" p-id="17069" /></svg>